<svg xmlns="http://www.w3.org/2000/svg" id="ic-family" width="24" height="24" viewBox="0 0 24 24">
  <rect id="Rectangle_1933" data-name="Rectangle 1933" width="24" height="24" fill="#1f212b" opacity="0"/>
  <path id="Path_4585" data-name="Path 4585" d="M18.5,7.355a3.5,3.5,0,1,0-3.893,0,5.347,5.347,0,0,0-1.235.7A3.429,3.429,0,0,0,12.844,8,3.477,3.477,0,0,0,9.755,9.9a4.907,4.907,0,0,0-.923-.518,3.519,3.519,0,1,0-3.9.015A4.786,4.786,0,0,0,2,13.772v7.684a1.5,1.5,0,0,0,1.5,1.5H8.052l9.1-.037h3.332a1.5,1.5,0,0,0,1.5-1.5v-8.8A5.653,5.653,0,0,0,18.5,7.355Zm-4.452-2.9a2.5,2.5,0,1,1,2.5,2.5,2.5,2.5,0,0,1-2.5-2.5ZM12.844,9a2.482,2.482,0,1,1-2.485,2.482A2.482,2.482,0,0,1,12.844,9ZM4.351,6.473A2.517,2.517,0,1,1,6.868,8.987,2.517,2.517,0,0,1,4.351,6.473ZM3.507,21.958a.5.5,0,0,1-.5-.5V13.772A3.848,3.848,0,0,1,6.9,9.986a3.95,3.95,0,0,1,2.515.907,3.35,3.35,0,0,0-.06.588,3.476,3.476,0,0,0,1.555,2.894,4.787,4.787,0,0,0-2.862,4.373v3.211Zm5.545-3.211a3.792,3.792,0,1,1,7.584,0v3.176h-.207l-7.377.031Zm11.935,2.679a.5.5,0,0,1-.5.5H17.636V18.747a4.784,4.784,0,0,0-2.861-4.372,3.458,3.458,0,0,0-.211-5.9,4.227,4.227,0,0,1,1.988-.5,4.552,4.552,0,0,1,4.435,4.652Z" transform="translate(0 0.016)" fill="#1f212b"/>
</svg>