<svg xmlns="http://www.w3.org/2000/svg" version="1.1" xmlns:xlink="http://www.w3.org/1999/xlink" xmlns:svgjs="http://svgjs.dev/svgjs" width="1500" height="1500" viewBox="0 0 1500 1500"><rect width="1500" height="1500" fill="#000000"></rect><g transform="matrix(0.6666666666666666,0,0,0.6666666666666666,249.78425655976667,249.78425655976673)"><svg viewBox="0 0 343 343" data-background-color="#ffffff" preserveAspectRatio="xMidYMid meet" height="1500" width="1500" xmlns="http://www.w3.org/2000/svg" xmlns:xlink="http://www.w3.org/1999/xlink"><g id="tight-bounds" transform="matrix(1,0,0,1,0.0740000000000407,0.07400000000001228)"><svg viewBox="0 0 342.85155851775386 342.85155851775386" height="342.85155851775386" width="342.85155851775386"><g><svg></svg></g><g><svg viewBox="0 0 342.85155851775386 342.85155851775386" height="342.85155851775386" width="342.85155851775386"><g><path d="M0 171.426c0-94.676 76.75-171.426 171.426-171.426 94.676 0 171.426 76.75 171.426 171.426 0 94.676-76.75 171.426-171.426 171.426-94.676 0-171.426-76.75-171.426-171.426zM171.426 338.001c91.997 0 166.576-74.578 166.575-166.575 0-91.997-74.578-166.576-166.575-166.576-91.997 0-166.576 74.578-166.576 166.576 0 91.997 74.578 166.576 166.576 166.575z" data-fill-palette-color="tertiary" fill="#ffffff" stroke="transparent"></path><ellipse rx="164.56874808852186" ry="164.56874808852186" cx="171.42577925887693" cy="171.42577925887693" fill="#ffffff" stroke="transparent" stroke-width="0" fill-opacity="1" data-fill-palette-color="tertiary"></ellipse></g><g transform="matrix(1,0,0,1,64.84655864529837,85.4858723415041)"><svg viewBox="0 0 213.1584412271571 171.87981383474565" height="171.87981383474565" width="213.1584412271571"><g><svg viewBox="0 0 213.1584412271571 171.87981383474565" height="171.87981383474565" width="213.1584412271571"><g transform="matrix(1,0,0,1,0,56.435408512089396)"><svg viewBox="0 0 213.1584412271571 115.44440532265625" height="115.44440532265625" width="213.1584412271571"><g id="textblocktransform"><svg viewBox="0 0 213.1584412271571 115.44440532265625" height="115.44440532265625" width="213.1584412271571" id="textblock"><g><svg viewBox="0 0 213.1584412271571 115.44440532265625" height="115.44440532265625" width="213.1584412271571"><g transform="matrix(1,0,0,1,0,0)"><svg width="213.1584412271571" viewBox="1.7763568394002505e-15 -39.4 163.60000000000002 84.9" height="115.44440532265625" data-palette-color="#ffffff"><svg></svg><svg></svg><g class="wordmark-text-0" data-fill-palette-color="quaternary" id="text-0"><path d="M4.3-4v0-29.5c0-0.767-0.233-1.317-0.7-1.65-0.467-0.333-1.233-0.5-2.3-0.5v0-1.85h11.6v1.85c-1.067 0-1.833 0.167-2.3 0.5-0.467 0.333-0.7 0.883-0.7 1.65v0 12.75h8.15v-12.75c0-0.767-0.233-1.317-0.7-1.65-0.467-0.333-1.233-0.5-2.3-0.5v0-1.85h11.5v1.85c-1.067 0-1.833 0.167-2.3 0.5-0.467 0.333-0.7 0.883-0.7 1.65v0 29.5c0 0.767 0.233 1.317 0.7 1.65 0.467 0.333 1.233 0.5 2.3 0.5v0 1.85h-11.5v-1.85c1.067 0 1.833-0.167 2.3-0.5 0.467-0.333 0.7-0.883 0.7-1.65v0-14.6h-8.15v14.6c0 0.8 0.217 1.357 0.65 1.67 0.433 0.32 1.217 0.48 2.35 0.48v0 1.85h-11.6v-1.85c1.133 0 1.917-0.16 2.35-0.48 0.433-0.313 0.65-0.87 0.65-1.67zM39.4-38v0c3.033 0 5.4 0.94 7.1 2.82 1.7 1.887 2.55 4.513 2.55 7.88v0 17.1c0 3.5-0.823 6.157-2.47 7.97-1.653 1.82-4.047 2.73-7.18 2.73v0c-3.167 0-5.6-0.923-7.3-2.77-1.7-1.853-2.55-4.497-2.55-7.93v0-17.1c0-3.467 0.843-6.117 2.53-7.95 1.68-1.833 4.12-2.75 7.32-2.75zM39.4-1.5v0c1.2 0 2.193-0.45 2.98-1.35 0.78-0.9 1.17-2.05 1.17-3.45v0-24.9c0-1.4-0.39-2.55-1.17-3.45-0.787-0.9-1.78-1.35-2.98-1.35v0c-1.167 0-2.15 0.457-2.95 1.37-0.8 0.92-1.2 2.063-1.2 3.43v0 24.9c0 1.433 0.383 2.59 1.15 3.47 0.767 0.887 1.767 1.33 3 1.33zM52.7 0v-1.85c1.067 0 1.833-0.167 2.3-0.5 0.467-0.333 0.7-0.883 0.7-1.65v0-29.5c0-0.767-0.233-1.317-0.7-1.65-0.467-0.333-1.233-0.5-2.3-0.5v0-1.85h12.5c6.267 0 9.4 3.583 9.4 10.75v0c0 2.433-0.357 4.4-1.07 5.9-0.72 1.5-1.963 2.767-3.73 3.8v0c1.6 1.033 2.75 2.307 3.45 3.82 0.7 1.52 1.05 3.447 1.05 5.78v0 0.65c0 1.467 0.333 2.657 1 3.57 0.667 0.92 1.55 1.38 2.65 1.38v0h0.55v1.85h-0.55c-3.233 0-5.607-0.793-7.12-2.38-1.52-1.58-2.28-4.037-2.28-7.37v0-1.4c0-1.467-0.34-2.667-1.02-3.6-0.687-0.933-1.563-1.4-2.63-1.4v0h-1.2v-2h1.5c1.133 0 2.043-0.45 2.73-1.35 0.68-0.9 1.02-2.083 1.02-3.55v0-7.65c0-1.467-0.333-2.633-1-3.5-0.667-0.867-1.583-1.3-2.75-1.3v0h-3.9v31.5c0 0.767 0.233 1.317 0.7 1.65 0.467 0.333 1.233 0.5 2.3 0.5v0 1.85zM79.6 0v-1.85c1.067 0 1.833-0.167 2.3-0.5 0.467-0.333 0.7-0.883 0.7-1.65v0-29.5c0-0.767-0.233-1.317-0.7-1.65-0.467-0.333-1.233-0.5-2.3-0.5v0-1.85h11.6v1.85c-1.067 0-1.833 0.167-2.3 0.5-0.467 0.333-0.7 0.883-0.7 1.65v0 29.5c0 0.767 0.233 1.317 0.7 1.65 0.467 0.333 1.233 0.5 2.3 0.5v0 1.85zM100.1-2h5.3c1.5 0 2.66-0.167 3.48-0.5 0.813-0.333 1.42-0.967 1.82-1.9 0.4-0.933 0.7-2.317 0.9-4.15v0h1.75v10.1h-1.85c-0.133-0.567-0.457-0.967-0.97-1.2-0.52-0.233-1.347-0.35-2.48-0.35v0h-14.15v-2l12.35-33.5h-3.15c-1.5 0-2.673 0.133-3.52 0.4-0.853 0.267-1.553 0.8-2.1 1.6-0.553 0.8-1.113 2-1.68 3.6v0l-1.7-0.45 2.2-9.05h1.7c0.1 0.7 0.327 1.19 0.68 1.47 0.347 0.287 0.887 0.43 1.62 0.43v0h12.05v2zM126.45-38v0c3.033 0 5.4 0.94 7.1 2.82 1.7 1.887 2.55 4.513 2.55 7.88v0 17.1c0 3.5-0.823 6.157-2.47 7.97-1.653 1.82-4.047 2.73-7.18 2.73v0c-3.167 0-5.6-0.923-7.3-2.77-1.7-1.853-2.55-4.497-2.55-7.93v0-17.1c0-3.467 0.843-6.117 2.53-7.95 1.68-1.833 4.12-2.75 7.32-2.75zM126.45-1.5v0c1.2 0 2.193-0.45 2.98-1.35 0.78-0.9 1.17-2.05 1.17-3.45v0-24.9c0-1.4-0.39-2.55-1.17-3.45-0.787-0.9-1.78-1.35-2.98-1.35v0c-1.167 0-2.15 0.457-2.95 1.37-0.8 0.92-1.2 2.063-1.2 3.43v0 24.9c0 1.433 0.383 2.59 1.15 3.47 0.767 0.887 1.767 1.33 3 1.33zM138.9 0v-1.85c1.067 0 1.833-0.167 2.3-0.5 0.467-0.333 0.7-0.883 0.7-1.65v0-29.5c0-0.767-0.233-1.317-0.7-1.65-0.467-0.333-1.233-0.5-2.3-0.5v0-1.85h8.8l10.55 23.7v-19.7c0-0.767-0.233-1.317-0.7-1.65-0.467-0.333-1.233-0.5-2.3-0.5v0-1.85h8.35v1.85c-1.067 0-1.833 0.167-2.3 0.5-0.467 0.333-0.7 0.883-0.7 1.65v0 33.5h-2.45l-13.9-31.5v27.5c0 0.767 0.233 1.317 0.7 1.65 0.467 0.333 1.233 0.5 2.3 0.5v0 1.85z" fill="#000000" fill-rule="nonzero" stroke="none" stroke-width="1" stroke-linecap="butt" stroke-linejoin="miter" stroke-miterlimit="10" stroke-dasharray="" stroke-dashoffset="0" font-family="none" font-weight="none" font-size="none" text-anchor="none" style="mix-blend-mode: normal" data-fill-palette-color="quaternary" opacity="1"></path><path transform="translate(0,43.95)" d="M6.4-8.95l-1.05 4.9c-0.133 0.7 0.06 1.24 0.58 1.62 0.513 0.387 1.32 0.58 2.42 0.58v0 1.85h-8.35v-1.85c0.967 0 1.683-0.167 2.15-0.5 0.467-0.333 0.783-0.9 0.95-1.7v0l7.5-34.15h2.4l7.75 34.25c0.167 0.833 0.46 1.393 0.88 1.68 0.413 0.28 1.12 0.42 2.12 0.42v0 1.85h-11.6v-1.85c1.2 0 2.043-0.16 2.53-0.48 0.48-0.313 0.637-0.837 0.47-1.57v0l-1.05-5.05zM10.35-26.9l-3.5 15.95h6.8zM25.4 0v-1.85c1.067 0 1.833-0.167 2.3-0.5 0.467-0.333 0.7-0.883 0.7-1.65v0-29.5c0-0.767-0.233-1.317-0.7-1.65-0.467-0.333-1.233-0.5-2.3-0.5v0-1.85h11.6v1.85c-1.067 0-1.833 0.167-2.3 0.5-0.467 0.333-0.7 0.883-0.7 1.65v0 29.5c0 0.767 0.233 1.317 0.7 1.65 0.467 0.333 1.233 0.5 2.3 0.5v0 1.85zM39.8 0v-1.85c1.067 0 1.833-0.167 2.3-0.5 0.467-0.333 0.7-0.883 0.7-1.65v0-29.5c0-0.767-0.233-1.317-0.7-1.65-0.467-0.333-1.233-0.5-2.3-0.5v0-1.85h12.5c6.267 0 9.4 3.583 9.4 10.75v0c0 2.433-0.357 4.4-1.07 5.9-0.72 1.5-1.963 2.767-3.73 3.8v0c1.6 1.033 2.75 2.307 3.45 3.82 0.7 1.52 1.05 3.447 1.05 5.78v0 0.65c0 1.467 0.333 2.657 1 3.57 0.667 0.92 1.55 1.38 2.65 1.38v0h0.55v1.85h-0.55c-3.233 0-5.61-0.793-7.13-2.38-1.513-1.58-2.27-4.037-2.27-7.37v0-1.4c0-1.467-0.34-2.667-1.02-3.6-0.687-0.933-1.563-1.4-2.63-1.4v0h-1.2v-2h1.5c1.133 0 2.043-0.45 2.73-1.35 0.68-0.9 1.02-2.083 1.02-3.55v0-7.65c0-1.467-0.333-2.633-1-3.5-0.667-0.867-1.583-1.3-2.75-1.3v0h-3.9v31.5c0 0.767 0.233 1.317 0.7 1.65 0.467 0.333 1.233 0.5 2.3 0.5v0 1.85zM66.7 0v-1.85c1.067 0 1.833-0.167 2.3-0.5 0.467-0.333 0.7-0.883 0.7-1.65v0-29.5c0-0.767-0.233-1.317-0.7-1.65-0.467-0.333-1.233-0.5-2.3-0.5v0-1.85h11.6v1.85c-1.067 0-1.833 0.167-2.3 0.5-0.467 0.333-0.7 0.883-0.7 1.65v0 31.5h3.8c1.5 0 2.66-0.167 3.48-0.5 0.813-0.333 1.42-0.967 1.82-1.9 0.4-0.933 0.7-2.317 0.9-4.15v0h1.75v10.1h-1.85c-0.133-0.567-0.457-0.967-0.97-1.2-0.52-0.233-1.347-0.35-2.48-0.35v0zM89.15 0v-1.85c1.067 0 1.833-0.167 2.3-0.5 0.467-0.333 0.7-0.883 0.7-1.65v0-29.5c0-0.767-0.233-1.317-0.7-1.65-0.467-0.333-1.233-0.5-2.3-0.5v0-1.85h11.6v1.85c-1.067 0-1.833 0.167-2.3 0.5-0.467 0.333-0.7 0.883-0.7 1.65v0 29.5c0 0.767 0.233 1.317 0.7 1.65 0.467 0.333 1.233 0.5 2.3 0.5v0 1.85zM102.7 0v-1.85c1.067 0 1.833-0.167 2.3-0.5 0.467-0.333 0.7-0.883 0.7-1.65v0-29.5c0-0.767-0.233-1.317-0.7-1.65-0.467-0.333-1.233-0.5-2.3-0.5v0-1.85h8.8l10.55 23.7v-19.7c0-0.767-0.233-1.317-0.7-1.65-0.467-0.333-1.233-0.5-2.3-0.5v0-1.85h8.35v1.85c-1.067 0-1.833 0.167-2.3 0.5-0.467 0.333-0.7 0.883-0.7 1.65v0 33.5h-2.45l-13.9-31.5v27.5c0 0.767 0.233 1.317 0.7 1.65 0.467 0.333 1.233 0.5 2.3 0.5v0 1.85zM129.35 0v-1.85c1.067 0 1.833-0.167 2.3-0.5 0.467-0.333 0.7-0.883 0.7-1.65v0-29.5c0-0.767-0.233-1.317-0.7-1.65-0.467-0.333-1.233-0.5-2.3-0.5v0-1.85h14.75c0.767 0 1.317-0.143 1.65-0.43 0.333-0.28 0.55-0.77 0.65-1.47v0h1.7l2.2 9.05-1.7 0.45c-0.567-1.6-1.127-2.8-1.68-3.6-0.547-0.8-1.247-1.333-2.1-1.6-0.847-0.267-2.02-0.4-3.52-0.4v0h-3.35v14.75h1.3c2.3 0 3.45-1.2 3.45-3.6v0h1.85v9.2h-1.85c0-1.267-0.273-2.183-0.82-2.75-0.553-0.567-1.43-0.85-2.63-0.85v0h-1.3v16.75h5.4c1.5 0 2.657-0.167 3.47-0.5 0.82-0.333 1.43-0.967 1.83-1.9 0.4-0.933 0.7-2.317 0.9-4.15v0h1.75v10.1h-1.85c-0.133-0.567-0.46-0.967-0.98-1.2-0.513-0.233-1.337-0.35-2.47-0.35v0z" fill="#000000" fill-rule="nonzero" stroke="none" stroke-width="1" stroke-linecap="butt" stroke-linejoin="miter" stroke-miterlimit="10" stroke-dasharray="" stroke-dashoffset="0" font-family="none" font-weight="none" font-size="none" text-anchor="none" style="mix-blend-mode: normal" data-fill-palette-color="quaternary" opacity="1"></path></g></svg></g></svg></g></svg></g></svg></g><g transform="matrix(1,0,0,1,61.131709359536394,0)"><svg viewBox="0 0 90.89502250808432 43.738740616782685" height="43.738740616782685" width="90.89502250808432"><g><svg xmlns="http://www.w3.org/2000/svg" data-name="Layer 1" viewBox="0 25.939999999999998 99.99987245656432 48.120000000000005" x="0" y="0" height="43.738740616782685" width="90.89502250808432" class="icon-icon-0" data-fill-palette-color="quaternary" id="icon-0"><path d="M98.05 30.33a5.17 5.17 0 0 0-1.18-0.52 16.52 16.52 0 0 0-11.14 0.44q-15.54 6.69-31 13.54l-0.38 0.15-24.57-18L19.57 28.13l17.81 23.2c-6.94 3-13.77 6-20.6 9a0.86 0.86 0 0 1-0.33 0l-8.26-6L0 56.69 12 73.86l0.19-0.13v0.33l3.89-1.71 7.15-3.11Q58 54.08 92.78 38.88a27.81 27.81 0 0 0 5.88-3.47C100.71 33.8 100.33 31.63 98.05 30.33Z" fill="#000000" data-fill-palette-color="quaternary"></path></svg></g></svg></g><g></g></svg></g></svg></g></svg></g><defs></defs></svg><rect width="342.85155851775386" height="342.85155851775386" fill="none" stroke="none" visibility="hidden"></rect></g></svg></g></svg>